<svg width="61" height="60" viewBox="0 0 61 60" fill="none" xmlns="http://www.w3.org/2000/svg">
<g clip-path="url(#clip0_1_136)">
<path d="M49.5988 29.7842C50.3502 29.7842 50.9737 29.7937 51.5971 29.7799C51.8989 29.7738 52.1583 29.9018 52.1531 30.1707C52.1462 30.5114 51.7994 30.3583 51.6109 30.3601C49.7087 30.3739 47.8012 30.3895 45.8981 30.3601C45.3412 30.3506 45.157 30.501 45.189 31.0596C45.2366 31.8724 45.2003 32.6895 45.2029 33.5049C45.2029 33.7686 45.2227 34.0237 44.8241 33.9977C44.4722 33.977 44.518 33.7383 44.5172 33.5179C44.5172 32.6463 44.4999 31.7738 44.5241 30.9031C44.5345 30.5071 44.4117 30.3592 43.9966 30.3661C42.3209 30.3955 40.6449 30.4076 38.9686 30.4024C38.6011 30.4024 38.4403 30.5287 38.48 30.891C38.4818 30.9198 38.4818 30.9487 38.48 30.9775C38.3538 33.421 38.3538 33.421 40.8371 33.421C41.4061 33.421 41.9748 33.421 42.5431 33.421C42.7541 33.421 42.9504 33.4487 42.9495 33.728C42.9495 34.0332 42.7143 33.9952 42.5258 33.996C41.1043 33.996 39.6828 33.9908 38.2621 34.0047C37.9258 34.0047 37.8108 33.8793 37.8125 33.5645C37.8229 31.3164 37.8275 29.0683 37.8264 26.8201C37.8264 26.4794 37.9664 26.393 38.2855 26.3956C39.6499 26.4077 41.0144 26.3956 42.3788 26.4008C42.5769 26.4008 42.793 26.3817 42.8112 26.6697C42.8337 26.9982 42.6149 27.0233 42.3685 27.0233C41.2885 27.0233 40.2068 27.0501 39.1285 27.0112C38.5899 26.9913 38.4714 27.1841 38.4653 27.6848C38.4411 29.7799 38.4247 29.7799 40.5751 29.7799C41.7122 29.7799 42.8492 29.766 43.9863 29.7877C44.3866 29.7954 44.5388 29.6813 44.5241 29.2689C44.4956 28.4829 44.5241 27.6943 44.512 26.9074C44.5059 26.5728 44.5768 26.3809 44.9746 26.3886C45.969 26.4103 46.9694 26.3394 47.9577 26.4224C49.5954 26.5616 50.3329 27.754 49.8064 29.2853C49.7623 29.4159 49.7017 29.5386 49.5988 29.7842ZM46.9253 29.7799C47.2374 29.7799 47.5496 29.7799 47.8617 29.7799C48.8397 29.7799 49.2158 29.4703 49.2789 28.6255C49.3438 27.7548 48.8751 27.1556 47.9949 27.0622C47.4328 27.0043 46.8561 27.0821 46.2967 27.0129C45.432 26.9066 45.1354 27.1816 45.1795 28.086C45.2608 29.7738 45.2029 29.7799 46.9253 29.7799Z" fill="white"/>
<path d="M19.4037 24.7092C18.5685 26.9236 17.8162 28.9192 17.0639 30.9149C16.9939 31.0991 16.9377 31.2884 16.8521 31.4657C16.7406 31.6974 16.5062 31.6576 16.3333 31.6084C16.0739 31.5349 16.2287 31.349 16.2831 31.2037C17.1556 28.9227 18.0367 26.6443 18.8919 24.3572C19.0095 24.0442 19.1919 24.0053 19.4677 24.0001C19.8568 23.9932 19.9001 24.2785 20.0038 24.5423C21.2299 27.7381 22.4586 30.9336 23.6899 34.1289C23.8914 34.6529 24.0903 35.1786 24.2813 35.706C24.3401 35.8677 24.5529 36.0804 24.2355 36.1816C24.0072 36.2542 23.7937 36.1902 23.6925 35.917C23.4201 35.1803 23.1322 34.4471 22.8529 33.7138C22.507 32.7955 22.1378 31.8825 21.8153 30.9538C21.6649 30.5154 21.4435 30.3191 20.9558 30.3589C20.4682 30.3987 19.9917 30.3407 19.5092 30.3433C19.2619 30.3433 19.1227 30.2128 19.0959 30.007C19.0492 29.6473 19.3553 29.8219 19.5084 29.783C19.5945 29.7727 19.6816 29.7727 19.7678 29.783C21.3553 29.7701 21.3562 29.7701 20.776 28.2586C20.3428 27.138 19.9104 26.0226 19.4037 24.7092Z" fill="white"/>
<path d="M26.5898 34.2066C25.0057 34.198 24.0104 33.4889 23.841 32.2429C23.8133 32.0389 23.6577 31.7717 24.0295 31.7172C24.3105 31.6766 24.4523 31.7535 24.5405 32.0951C24.9106 33.533 26.812 34.1366 28.0199 33.2347C28.927 32.5577 28.7791 31.2226 27.7 30.786C26.9425 30.479 26.1237 30.3277 25.3455 30.0657C24.5673 29.8037 24.0286 29.3221 23.9949 28.4228C23.956 27.3671 24.4506 26.6572 25.4838 26.3476C27.0679 25.8798 28.5681 26.4929 28.9296 27.7821C28.9901 27.9957 29.2486 28.3467 28.786 28.4643C28.4047 28.5612 28.3615 28.3026 28.2733 27.9965C27.9957 27.0454 27.0792 26.6416 25.8453 26.8768C25.0195 27.035 24.6555 27.5253 24.6849 28.3692C24.7065 28.9745 25.0662 29.2858 25.5885 29.4501C26.1557 29.6273 26.7411 29.751 27.31 29.9248C28.8215 30.3856 29.419 31.1474 29.246 32.3623C29.0809 33.5296 28.0917 34.2144 26.5898 34.2066Z" fill="white"/>
<path d="M9.7163 30.0236C9.71025 30.992 9.81314 31.7347 10.2118 32.4118C10.7807 33.3776 11.673 33.7088 12.7409 33.5929C13.7353 33.4866 14.4279 32.9669 14.6613 31.9647C14.7253 31.6915 14.7885 31.4459 15.1343 31.5246C15.5494 31.6171 15.341 31.9431 15.29 32.1377C15.015 33.1701 14.3535 33.886 13.2934 34.1083C12.0829 34.3625 10.9121 34.2492 10.0137 33.2436C8.70982 31.784 8.64843 28.7525 9.91863 27.2774C10.7833 26.2795 11.9169 26.0556 13.1646 26.2951C14.1849 26.4914 14.9268 27.0422 15.2182 28.0737C15.264 28.2363 15.4689 28.4637 15.1689 28.5649C14.9718 28.6306 14.7746 28.6453 14.6164 28.3599C13.8512 26.9765 13.1741 26.6401 11.7716 26.8805C10.6925 27.0655 9.95581 27.9484 9.76299 29.3016C9.72062 29.6051 9.72322 29.9172 9.7163 30.0236Z" fill="white"/>
<path d="M30.9655 30.1928C30.9655 29.0999 30.9802 28.0069 30.9577 26.9149C30.9499 26.5136 31.0779 26.3718 31.4895 26.3857C32.3109 26.4133 33.1324 26.3589 33.9547 26.4064C35.352 26.486 36.0809 27.2305 36.0965 28.5154C36.112 29.7475 35.4203 30.4946 34.0619 30.6416C33.4135 30.7023 32.7621 30.7236 32.1112 30.7056C31.7083 30.7012 31.569 30.824 31.5924 31.2365C31.6313 31.936 31.6227 32.639 31.6019 33.3394C31.595 33.5789 31.7636 33.9688 31.301 33.9835C30.7761 34 30.9448 33.5685 30.9404 33.3048C30.9205 32.2672 30.9327 31.2296 30.9327 30.192L30.9655 30.1928ZM31.6114 28.5266C31.6114 28.9209 31.6166 29.3143 31.6114 29.7086C31.6071 29.9317 31.6503 30.1055 31.9236 30.0951C32.7433 30.064 33.5751 30.2093 34.3801 29.9671C35.1505 29.7354 35.5206 29.1682 35.4376 28.358C35.3589 27.5798 34.9188 27.1319 34.125 27.061C33.7869 27.0299 33.4445 27.0221 33.1047 27.0212C31.6131 27.0126 31.6131 27.0178 31.6114 28.5266Z" fill="white"/>
<path d="M48.6641 30.827C49.3601 30.5892 49.5711 30.9325 49.6299 31.4426C49.7094 32.1344 49.7734 32.8261 49.8296 33.5178C49.8426 33.6795 50.1677 33.9381 49.706 33.9934C49.3921 34.0315 49.2183 33.9 49.1872 33.6008C49.1405 33.159 49.1267 32.7137 49.0756 32.2718C49.0194 31.7764 48.9537 31.2775 48.6641 30.827Z" fill="white"/>
</g>
<defs>
<clipPath id="clip0_1_136">
<rect width="43.154" height="12.21" fill="white" transform="translate(9 24)"/>
</clipPath>
</defs>
</svg>
