<svg width="61" height="60" viewBox="0 0 61 60" fill="none" xmlns="http://www.w3.org/2000/svg">
<rect x="0.5" width="60" height="60" rx="30" fill="#3F4195"/>
<path d="M28.616 28.9926C28.3149 29.0306 28.0113 29.0455 27.708 29.0371H25.95L26.35 28.2776C26.3766 28.2252 26.4186 28.1821 26.4706 28.1538C26.5226 28.1256 26.582 28.1136 26.641 28.1194C27.063 28.1194 27.484 28.1194 27.906 28.1194C28.0449 28.1188 28.1834 28.1033 28.319 28.0729C28.4822 28.0444 28.6326 27.9669 28.7496 27.8508C28.8666 27.7347 28.9446 27.5858 28.973 27.4243C29.026 27.1832 29.026 26.9336 28.973 26.6925C28.9437 26.5053 28.8522 26.333 28.713 26.2029C28.5737 26.0727 28.3947 25.9921 28.204 25.9737C28.0832 25.9547 27.9612 25.9451 27.839 25.945C27.2316 25.945 26.6246 25.945 26.018 25.945C25.783 25.945 25.703 26.0261 25.703 26.2614C25.703 27.1444 25.703 28.0275 25.703 28.9105C25.703 29.0094 25.679 29.044 25.572 29.042C25.239 29.0341 24.906 29.0361 24.572 29.042C24.489 29.042 24.455 29.0291 24.455 28.9362C24.455 27.6731 24.455 26.4111 24.455 25.15C24.455 25.0709 24.472 25.0442 24.555 25.0442C25.755 25.0442 26.95 25.0442 28.147 25.0442C28.4506 25.0415 28.7525 25.0897 29.04 25.1866C29.719 25.4229 30.097 25.9104 30.22 26.5956C30.3029 27.0107 30.2708 27.4402 30.127 27.8386C29.873 28.5377 29.338 28.8838 28.616 28.9926ZM35.539 25.0076C35.22 25.0076 34.904 25.0076 34.588 25.0076C34.5093 25.0025 34.4312 25.0241 34.3666 25.0689C34.3021 25.1136 34.2549 25.1789 34.233 25.2538C34.169 25.4387 34.098 25.6206 34.033 25.8046L33.364 27.6487C33.346 27.6042 33.332 27.5756 33.321 27.5449C33.021 26.736 32.714 25.9262 32.415 25.1154C32.4081 25.0795 32.3876 25.0477 32.3576 25.0265C32.3276 25.0053 32.2904 24.9964 32.254 25.0016C31.938 25.0086 31.621 25.0066 31.305 25.0016C31.2727 24.9964 31.2396 25.0038 31.2127 25.0223C31.1858 25.0407 31.1673 25.0688 31.161 25.1005C30.867 25.9285 30.5703 26.7548 30.271 27.5795C30.2346 27.6781 30.2374 27.7866 30.279 27.8831C30.406 28.2035 30.527 28.5268 30.66 28.8462C30.686 28.9085 30.66 29.0183 30.782 29.0202C30.904 29.0222 30.962 28.9481 31 28.8462C31.013 28.8116 31.029 28.778 31.04 28.7473C31.207 28.2282 31.391 27.715 31.579 27.2038L31.8 26.6045C31.823 26.652 31.834 26.6728 31.843 26.6945C32.109 27.3986 32.377 28.1026 32.643 28.8067C32.6554 28.8589 32.6868 28.9048 32.7312 28.9357C32.7757 28.9665 32.83 28.9801 32.884 28.9738C33.184 28.9639 33.492 28.9738 33.795 28.9738C33.8456 28.9775 33.8964 28.9706 33.9441 28.9535C33.9919 28.9365 34.0354 28.9097 34.072 28.8749C34.137 28.7927 34.1849 28.6986 34.213 28.598C34.437 27.9981 34.661 27.3976 34.885 26.7964C35.0983 26.2281 35.3123 25.6599 35.527 25.0916C35.533 25.059 35.557 25.0333 35.539 25.0076ZM30.173 28.0354C30.123 28.066 30.116 28.1095 30.097 28.1432C29.9506 28.4171 29.7305 28.6457 29.461 28.8037C29.343 28.8719 29.343 28.9125 29.461 28.9797C29.4965 29.0022 29.537 29.0157 29.579 29.0193C29.879 29.0252 30.185 29.0272 30.488 29.0291C30.523 29.0291 30.545 29.0291 30.528 28.9797L30.173 28.0354ZM28.853 26.6332C28.8177 26.4923 28.7365 26.3668 28.6219 26.276C28.5073 26.1852 28.3657 26.1342 28.219 26.1309C28.404 26.6075 28.589 27.0812 28.783 27.5795C28.9234 27.2834 28.9484 26.9464 28.853 26.6332V26.6332Z" fill="#121212"/>
<path d="M5 32.1847C5.053 32.2292 5.105 32.1847 5.158 32.1847C6.106 32.1896 7.058 32.1847 8.003 32.1847C8.21812 32.1844 8.43245 32.2106 8.641 32.2628C8.94511 32.3326 9.21814 32.4981 9.41916 32.7343C9.62018 32.9705 9.73837 33.2648 9.756 33.573C9.78082 33.8042 9.76833 34.0378 9.719 34.2652C9.562 34.9079 9.145 35.2649 8.5 35.3835C8.32191 35.4163 8.14115 35.4328 7.96 35.433H6.26C6.383 35.2026 6.482 34.9751 6.62 34.7675C6.64519 34.7364 6.67829 34.7125 6.71589 34.6983C6.7535 34.684 6.79426 34.6799 6.834 34.6864H7.782C7.89146 34.6869 8.00079 34.679 8.109 34.6627C8.26535 34.6498 8.41231 34.5836 8.5247 34.4754C8.63709 34.3671 8.7079 34.2236 8.725 34.0694C8.75749 33.8928 8.75749 33.7119 8.725 33.5354C8.661 33.1933 8.416 32.9807 8.043 32.9421C7.8328 32.9251 7.62182 32.9195 7.411 32.9253C7.057 32.9253 6.703 32.9253 6.349 32.9253C6.134 32.9253 6.068 32.9896 6.068 33.1992C6.068 33.8983 6.068 34.5984 6.068 35.2975C6.068 35.4231 6.032 35.4478 5.915 35.4439C5.671 35.434 5.426 35.4439 5.181 35.4439C5.107 35.4439 5.039 35.4508 5.044 35.345C5.044 35.3173 5.016 35.3272 5.002 35.345L5 32.1847Z" fill="white"/>
<path d="M55.0005 34.5599C54.9555 34.5905 54.9695 34.6429 54.9585 34.6845C54.9115 34.8922 54.7955 35.0784 54.6289 35.2132C54.4623 35.348 54.2547 35.4237 54.0395 35.4281C52.9475 35.439 51.8555 35.4281 50.7665 35.4281C50.7455 35.4063 50.7585 35.3885 50.7665 35.3707C50.8615 35.1937 50.9585 35.0187 51.0485 34.8407C51.0715 34.7893 51.1102 34.7463 51.1591 34.7177C51.2081 34.6892 51.2649 34.6765 51.3215 34.6815C52.1275 34.6815 52.9325 34.6815 53.7375 34.6815C53.9145 34.6815 54.0215 34.6024 54.0375 34.463C54.0462 34.4229 54.0451 34.3814 54.0343 34.3418C54.0236 34.3022 54.0034 34.2658 53.9756 34.2354C53.9477 34.2051 53.9129 34.1817 53.8742 34.1673C53.8354 34.1529 53.7937 34.1478 53.7525 34.1525C53.1325 34.1525 52.5128 34.1525 51.8935 34.1525C51.7798 34.1527 51.6662 34.1454 51.5535 34.1307C51.1065 34.0704 50.7535 33.7827 50.6685 33.402C50.5355 32.8215 50.8895 32.3142 51.4985 32.2075C51.5939 32.1907 51.6906 32.1818 51.7875 32.1808C52.6602 32.1808 53.5328 32.1808 54.4055 32.1808C54.4305 32.1808 54.4555 32.1808 54.5055 32.1808C54.3825 32.4042 54.2875 32.6297 54.1515 32.8334C54.0955 32.9174 54.0065 32.9085 53.9235 32.9085H51.9615C51.9245 32.9085 51.8855 32.9085 51.8485 32.9085C51.8136 32.908 51.7789 32.9144 51.7466 32.9275C51.7143 32.9406 51.685 32.96 51.6606 32.9846C51.6361 33.0092 51.6169 33.0384 51.6041 33.0706C51.5914 33.1027 51.5854 33.1371 51.5865 33.1716C51.5876 33.205 51.5956 33.2379 51.61 33.2682C51.6244 33.2985 51.6449 33.3255 51.6703 33.3477C51.6957 33.3698 51.7254 33.3866 51.7576 33.3969C51.7898 33.4073 51.8238 33.411 51.8575 33.4079H53.8805C54.5055 33.4079 54.8455 33.6798 54.9805 34.286C54.9805 34.2919 54.9925 34.2959 54.9985 34.3008L55.0005 34.5599Z" fill="#0298D9"/>
<path d="M39.0058 35.5636C39.0053 35.5706 39.0053 35.5776 39.0058 35.5846H38.5508C38.5513 35.5776 38.5513 35.5706 38.5508 35.5636H39.0058Z" fill="#D3D2D2"/>
<path d="M31.8877 34.6727C32.0987 34.0873 32.3027 33.5197 32.5077 32.9531C32.5897 32.7257 32.6747 32.4992 32.7527 32.2708C32.7578 32.2428 32.774 32.2179 32.7976 32.2016C32.8212 32.1853 32.8503 32.1789 32.8787 32.1838C33.1267 32.1838 33.3787 32.1907 33.6247 32.1838C33.6636 32.1759 33.704 32.1835 33.7372 32.205C33.7703 32.2265 33.7935 32.2601 33.8017 32.2985C34.0707 33.0332 34.3457 33.7659 34.6187 34.4996C34.6367 34.5461 34.6557 34.5916 34.6747 34.6401C34.7277 34.6203 34.7247 34.5728 34.7377 34.5412C35.0084 33.7936 35.2777 33.0454 35.5457 32.2965C35.5523 32.261 35.5728 32.2295 35.6028 32.209C35.6328 32.1884 35.6698 32.1804 35.7057 32.1868C35.9547 32.1937 36.2057 32.1868 36.4527 32.1868C36.5237 32.1868 36.5527 32.1947 36.5207 32.2758C36.1607 33.2646 35.8057 34.2475 35.4467 35.2334C35.3817 35.4094 35.3357 35.4311 35.1467 35.4361C34.8137 35.4361 34.4807 35.4361 34.1467 35.4361C34.1126 35.4416 34.0776 35.4339 34.0491 35.4146C34.0206 35.3952 34.0007 35.3657 33.9937 35.3322C33.7817 34.7666 33.5637 34.204 33.3477 33.6403C33.3317 33.5978 33.3147 33.5573 33.2877 33.49C33.1337 33.9133 32.9877 34.3108 32.8427 34.7073C32.7757 34.8912 32.7047 35.0732 32.6427 35.2581C32.6284 35.3129 32.5948 35.3609 32.5478 35.3934C32.5009 35.4259 32.4437 35.4406 32.3867 35.4351C32.0327 35.4351 31.6787 35.4351 31.3247 35.4351C31.2677 35.4351 31.2337 35.4242 31.2117 35.3649C30.8117 34.3101 30.4117 33.259 30.0117 32.2115C30.0117 32.2115 30.0117 32.2036 30.0177 32.1858C30.3117 32.1858 30.6087 32.1858 30.9057 32.1858C30.9797 32.1858 30.9777 32.2441 30.9937 32.2847C31.2731 33.0289 31.5514 33.7735 31.8287 34.5184C31.8417 34.5659 31.8617 34.6124 31.8877 34.6727Z" fill="#0298D9"/>
<path d="M27.1793 34.4727C27.3303 34.0772 27.4793 33.6886 27.6223 33.3049C27.7423 32.9944 27.8683 32.6859 27.9853 32.3744C28.0015 32.3141 28.0391 32.2615 28.0912 32.2263C28.1434 32.191 28.2066 32.1755 28.2693 32.1826C28.6743 32.1895 29.0793 32.1876 29.4833 32.1826C29.5673 32.1826 29.5893 32.2054 29.5893 32.2864C29.5893 33.303 29.5893 34.3191 29.5893 35.335C29.5893 35.4102 29.5703 35.4339 29.4893 35.4339C29.2243 35.4289 28.9583 35.427 28.6893 35.4339C28.5893 35.4339 28.5733 35.4013 28.5743 35.3133C28.5743 34.5845 28.5743 33.8557 28.5743 33.1269V32.9935C28.5354 33.0286 28.5103 33.0762 28.5033 33.1279C28.2383 33.8597 27.9733 34.5914 27.7153 35.3251C27.7076 35.3607 27.6862 35.3919 27.6555 35.412C27.6249 35.4321 27.5875 35.4396 27.5513 35.4329C27.3113 35.428 27.0703 35.427 26.8303 35.4329C26.7944 35.4393 26.7574 35.4315 26.7273 35.4111C26.6972 35.3908 26.6764 35.3595 26.6693 35.3241C26.4033 34.5924 26.1313 33.8607 25.8533 33.1289C25.8428 33.0777 25.8175 33.0306 25.7803 32.9935V33.123C25.7803 33.8389 25.7803 34.5558 25.7803 35.2717C25.7803 35.4616 25.8053 35.4319 25.6113 35.4339C25.3663 35.4339 25.1223 35.4339 24.8773 35.4339C24.8033 35.4339 24.7773 35.4181 24.7773 35.335C24.7773 34.361 24.7773 33.386 24.7773 32.412C24.7773 32.2449 24.8473 32.1806 25.0193 32.1806C25.3983 32.1806 25.7773 32.1806 26.1573 32.1806C26.1955 32.1747 26.2345 32.1833 26.2665 32.2048C26.2984 32.2263 26.3209 32.259 26.3293 32.2963C26.5943 32.9836 26.8633 33.6698 27.1293 34.3551C27.1453 34.3917 27.1603 34.4253 27.1793 34.4727Z" fill="white"/>
<path d="M44.7706 34.4344L45.9356 35.4123C45.8956 35.4489 45.8566 35.4331 45.8216 35.4331C45.4846 35.4331 45.1476 35.4331 44.8106 35.4331C44.7396 35.4355 44.6706 35.4098 44.6186 35.3619C44.3186 35.1028 44.0186 34.8487 43.7236 34.5896C43.6949 34.5628 43.6609 34.5421 43.6237 34.5288C43.5866 34.5156 43.5471 34.51 43.5076 34.5125C43.2336 34.5174 42.9596 34.5125 42.6856 34.5125C42.6086 34.5125 42.5856 34.4976 42.6276 34.4225C42.7156 34.2623 42.7996 34.0991 42.8826 33.935C42.9057 33.8813 42.9455 33.8363 42.9962 33.8064C43.0469 33.7765 43.1059 33.7634 43.1646 33.7689C43.4646 33.7738 43.7716 33.7738 44.0756 33.7689C44.1645 33.7713 44.2517 33.7448 44.3239 33.6936C44.3962 33.6423 44.4494 33.5691 44.4756 33.4851C44.5051 33.4022 44.5083 33.3124 44.4849 33.2276C44.4615 33.1428 44.4126 33.0671 44.3446 33.0104C44.258 32.9414 44.1488 32.9062 44.0376 32.9116H42.5376C42.3526 32.9116 42.2796 32.9867 42.2796 33.1726C42.2796 33.8806 42.2796 34.5886 42.2796 35.2956C42.2796 35.3945 42.2566 35.4311 42.1496 35.4281C41.8876 35.4192 41.6266 35.4281 41.3656 35.4281C41.2956 35.4281 41.2656 35.4113 41.2656 35.3382C41.2656 34.3137 41.2656 33.2896 41.2656 32.2658C41.2656 32.1897 41.2956 32.1768 41.3656 32.1768C42.3656 32.1768 43.3716 32.1769 44.3746 32.1818C44.6297 32.1934 44.874 32.2866 45.0708 32.4475C45.2676 32.6084 45.4061 32.8282 45.4655 33.0738C45.5248 33.3194 45.5019 33.5773 45.4 33.8089C45.2981 34.0404 45.1228 34.2328 44.9006 34.3572L44.7706 34.4344Z" fill="#0298D9"/>
<path d="M14.9068 35.433C14.5158 35.433 14.1248 35.433 13.7338 35.433C13.6748 35.433 13.6438 35.3924 13.6068 35.3618C13.3068 35.1057 13.0068 34.8495 12.7068 34.5895C12.6803 34.5642 12.649 34.5445 12.6146 34.5314C12.5803 34.5184 12.5436 34.5122 12.5068 34.5133C12.2068 34.5133 11.8998 34.5133 11.5698 34.5133C11.7018 34.275 11.7938 34.0367 11.9478 33.8301C11.9908 33.7717 12.0588 33.7757 12.1218 33.7747C12.4298 33.7747 12.7368 33.7747 13.0448 33.7747C13.1095 33.7783 13.1742 33.7672 13.2338 33.7421C13.2935 33.7171 13.3465 33.6788 13.3888 33.6302C13.431 33.5816 13.4614 33.5241 13.4775 33.462C13.4937 33.4 13.4951 33.3351 13.4818 33.2724C13.4705 33.1889 13.4331 33.1111 13.3748 33.0497C13.3166 32.9884 13.2403 32.9466 13.1568 32.9302C13.1071 32.9204 13.0565 32.9154 13.0058 32.9154H11.5378C11.3378 32.9154 11.2688 32.9826 11.2688 33.1883C11.2688 33.8924 11.2688 34.5964 11.2688 35.3005C11.2688 35.3993 11.2468 35.4369 11.1388 35.4339C10.8818 35.425 10.6238 35.4339 10.3668 35.4339C10.2898 35.4339 10.2568 35.4221 10.2578 35.3351C10.2578 34.3185 10.2578 33.302 10.2578 32.2855C10.2578 32.2024 10.2828 32.1866 10.3638 32.1866C11.3458 32.1866 12.3288 32.1866 13.3118 32.1866C13.5731 32.1883 13.8265 32.2754 14.0327 32.4341C14.2388 32.5929 14.3862 32.8146 14.4518 33.0647C14.5164 33.3152 14.4942 33.5798 14.3889 33.8164C14.2836 34.0529 14.1012 34.2478 13.8708 34.37C13.7708 34.4234 13.7628 34.4471 13.8538 34.5212C14.2108 34.813 14.5618 35.1145 14.9148 35.4112L14.9068 35.433Z" fill="white"/>
<path d="M39.0053 35.5636H38.5523C38.2996 35.55 38.0503 35.5 37.8123 35.4153C37.1973 35.1829 36.8843 34.7231 36.8053 34.0962C36.7651 33.8065 36.7852 33.5117 36.8643 33.2299C36.9326 32.9621 37.0748 32.7183 37.275 32.5258C37.4752 32.3332 37.7256 32.1994 37.9983 32.1393C38.4864 32.0164 38.9971 32.0099 39.4883 32.1205C40.2533 32.2896 40.7293 32.8591 40.7713 33.6354C40.7922 33.906 40.7644 34.1782 40.6893 34.4393C40.4983 35.0593 40.0423 35.3777 39.4263 35.5102C39.2876 35.5391 39.1468 35.557 39.0053 35.5636V35.5636ZM37.7183 33.8035C37.7183 33.8569 37.7183 33.9112 37.7183 33.9646C37.7473 34.4531 38.0013 34.7468 38.4703 34.8259C38.6868 34.863 38.9084 34.861 39.1243 34.82C39.5343 34.7409 39.7693 34.5065 39.8343 34.1001C39.8734 33.878 39.8669 33.6503 39.8153 33.4307C39.786 33.2715 39.7081 33.125 39.5921 33.011C39.476 32.8969 39.3274 32.8208 39.1663 32.7929C38.9802 32.7576 38.79 32.748 38.6013 32.7642C38.2283 32.7909 37.9363 32.9372 37.7943 33.3011C37.7337 33.4615 37.7078 33.6326 37.7183 33.8035V33.8035Z" fill="#0298D9"/>
<path d="M24.3584 35.4329C24.0014 35.4329 23.6584 35.4329 23.3114 35.4329C23.2903 35.4344 23.2693 35.4293 23.2513 35.4183C23.2333 35.4073 23.2194 35.3909 23.2114 35.3716C23.1644 35.2786 23.1114 35.1896 23.0664 35.0947C23.0427 35.0303 22.9977 34.9757 22.9387 34.9398C22.8797 34.9039 22.8102 34.8888 22.7414 34.8969C22.2864 34.9058 21.8304 34.8969 21.3754 34.9019C21.2754 34.9019 21.2454 34.888 21.3024 34.7892C21.3914 34.6339 21.4694 34.4727 21.5524 34.3135C21.5748 34.2617 21.6134 34.2184 21.6625 34.1897C21.7116 34.1611 21.7687 34.1487 21.8254 34.1543C22.0314 34.1632 22.2384 34.1543 22.4454 34.1543C22.5254 34.1543 22.5544 34.1444 22.5084 34.0604C22.3084 33.6945 22.1084 33.3267 21.9154 32.9578C21.8574 32.9717 21.8544 33.0251 21.8344 33.0617C21.4344 33.8171 21.038 34.5752 20.6454 35.336C20.6333 35.3681 20.6107 35.3953 20.5811 35.4132C20.5516 35.4312 20.5168 35.4388 20.4824 35.4349C20.1504 35.4299 19.8174 35.4349 19.4824 35.4349C19.4734 35.3923 19.4984 35.3666 19.5134 35.336C20.0284 34.3916 20.5504 33.4503 21.0554 32.501C21.1794 32.2676 21.3214 32.15 21.6034 32.1767C21.8894 32.1936 22.1762 32.1953 22.4624 32.1816C22.4888 32.1779 22.5157 32.1827 22.5393 32.1951C22.5628 32.2075 22.5818 32.2271 22.5934 32.2508C23.1714 33.2944 23.7507 34.3369 24.3314 35.3785C24.3434 35.3894 24.3464 35.4022 24.3584 35.4329Z" fill="white"/>
<path d="M47.3762 33.6284C47.8762 33.1557 48.3492 32.7107 48.8182 32.2618C48.8439 32.2354 48.8751 32.2147 48.9096 32.2013C48.9441 32.1878 48.9811 32.1818 49.0182 32.1837C49.3952 32.1837 49.7732 32.1837 50.1832 32.1837L49.9892 32.3587C49.4892 32.8027 48.9962 33.2487 48.4962 33.6887C48.4232 33.753 48.4242 33.7797 48.4962 33.842C49.0962 34.3423 49.6962 34.8476 50.2962 35.3509C50.3202 35.3717 50.3562 35.3826 50.3622 35.432H49.1002C49.0422 35.432 49.0112 35.3865 48.9742 35.3549C48.4735 34.929 47.9735 34.5005 47.4742 34.0694L47.4002 34.019C47.3582 34.0546 47.3782 34.0991 47.3782 34.1366C47.3782 34.5322 47.3782 34.9277 47.3782 35.3232C47.3782 35.4083 47.3582 35.4379 47.2672 35.436C47.0022 35.43 46.7362 35.43 46.4672 35.436C46.3802 35.436 46.3672 35.4073 46.3672 35.3292C46.3672 34.314 46.3672 33.2981 46.3672 32.2816C46.3672 32.2055 46.3862 32.1827 46.4672 32.1827C46.7339 32.1873 47.0035 32.1873 47.2762 32.1827C47.3642 32.1827 47.3762 32.2134 47.3762 32.2905C47.3762 32.686 47.3762 33.0816 47.3762 33.4771V33.6284Z" fill="#0298D9"/>
<path d="M19.2835 32.1848C19.1665 32.4004 19.0605 32.5981 18.9535 32.7949C18.9293 32.8365 18.8929 32.8699 18.8492 32.8907C18.8055 32.9115 18.7564 32.9188 18.7085 32.9116C18.0215 32.9116 17.3345 32.9116 16.6475 32.9116C16.4265 32.9116 16.3625 32.9749 16.3625 33.1944C16.3625 33.4614 16.3625 33.4614 16.6265 33.4614H18.7015C18.5865 33.672 18.4815 33.8648 18.3745 34.0547C18.3225 34.1486 18.2295 34.1536 18.1335 34.1536C17.6315 34.1536 17.1315 34.1536 16.6335 34.1536C16.4335 34.1536 16.3645 34.2178 16.3645 34.4235C16.3645 34.7202 16.3645 35.0237 16.3645 35.3234C16.3645 35.3985 16.3535 35.4331 16.2645 35.4311C15.9955 35.4252 15.7255 35.4311 15.4555 35.4311C15.3815 35.4311 15.3555 35.4163 15.3555 35.3323C15.3555 34.3118 15.3555 33.2916 15.3555 32.2718C15.3555 32.2076 15.3645 32.1729 15.4425 32.1729C16.7125 32.1848 17.9855 32.1848 19.2835 32.1848Z" fill="white"/>
<path d="M19.2998 34.7003C19.1938 34.904 19.0998 35.088 18.9998 35.2729C18.9769 35.3245 18.9383 35.3678 18.8894 35.3968C18.8405 35.4259 18.7837 35.4392 18.7268 35.435C18.0408 35.435 17.3545 35.435 16.6678 35.435C16.5808 35.435 16.5678 35.4172 16.6068 35.3362C16.6988 35.1681 16.7848 34.996 16.8738 34.8269C16.8876 34.7893 16.9125 34.7567 16.9454 34.7334C16.9782 34.7101 17.0174 34.6972 17.0578 34.6964L19.2998 34.7003Z" fill="white"/>
</svg>
