<svg width="60" height="60" viewBox="0 0 60 60" fill="none" xmlns="http://www.w3.org/2000/svg">
<rect width="60" height="60" rx="30" fill="#13AFEE"/>
<path d="M33.7931 18V30.7533C33.7862 33.0477 32.8797 35.255 31.2548 36.9339C29.63 38.6127 27.4066 39.6394 25.0292 39.8085H25C26.6495 41.2254 28.7847 42.0059 30.9955 42C33.3837 42 35.674 41.0869 37.3627 39.4616C39.0513 37.8363 40 35.632 40 33.3335V18H33.7931Z" fill="white"/>
<path d="M22.5264 32.3453C22.895 32.6621 23.3455 32.8743 23.8289 32.9589C24.3123 33.0434 24.8102 32.9971 25.2686 32.8249C25.7845 32.6242 26.2261 32.2757 26.5351 31.8252C26.8442 31.3748 27.0062 30.8435 26.9998 30.3014V18H22V31.2132C21.9991 31.4292 22.0456 31.6429 22.1364 31.8399C22.2272 32.0368 22.3602 32.2125 22.5264 32.3551V32.3453Z" fill="white"/>
<path d="M22.0403 36.0077C21.7841 35.0068 21.6293 33.981 21.5784 32.9469C21.5361 32.1383 21.4889 31.2101 21.4889 30.9861V29H16V31.1899C16.0001 33.4373 16.8278 35.6 18.3143 37.2371C19.8009 38.8742 21.8343 39.8623 24 40C22.9738 38.8242 22.4306 37.4833 22.0403 36.0077Z" fill="white"/>
<path d="M27.7805 18V30.9653C27.7811 31.5703 27.6218 32.1627 27.3218 32.6713C27.0218 33.1799 26.5938 33.5832 26.0891 33.8328C25.5844 34.0823 25.0245 34.1675 24.4766 34.0782C23.9286 33.9889 23.4159 33.7288 23 33.3291V33.817C22.9991 34.9783 23.2184 36.1272 23.6442 37.1913C24.0699 38.2554 24.6928 39.2118 25.4737 40C27.5161 39.8413 29.4277 38.8439 30.824 37.2084C32.2203 35.573 32.9977 33.4208 33 31.1848V18.0152L27.7805 18Z" fill="white"/>
</svg>
