<svg width="60" height="60" viewBox="0 0 60 60" fill="none" xmlns="http://www.w3.org/2000/svg">
<rect width="60" height="60" rx="30" fill="#F1F3FE"/>
<g clip-path="url(#clip0_1_123)">
<path d="M31.3633 16.1006C34.8103 16.5516 37.708 19.2059 38.5914 22.5975C38.8597 23.627 38.9568 24.6832 38.83 25.7284C38.5954 27.6649 37.8728 29.3936 36.4869 30.8286C35.5199 31.8299 34.4317 32.6133 33.1296 33.1113C31.7746 33.6296 30.3583 33.8007 28.9477 33.611C24.498 33.0142 21.5805 29.5213 21.2197 25.7048C21.1952 25.4474 21.2176 25.3329 21.5086 25.3369C22.2339 25.3471 22.9597 25.3369 23.6852 25.3283C23.8665 25.3263 23.9714 25.3444 23.9958 25.5776C24.2235 27.7435 26.0498 29.3491 28.2262 29.2735C29.4353 29.2317 30.6438 29.2317 31.8526 29.2386C32.1987 29.2405 32.2858 29.129 32.2743 28.7987C32.2445 27.944 32.2583 27.9463 33.0953 27.9422C33.7939 27.939 34.4924 27.9314 35.1909 27.9196C35.7484 27.9102 36.131 27.5828 36.1249 27.1304C36.1193 26.672 35.7409 26.3681 35.174 26.3741C34.3143 26.3833 33.4545 26.3877 32.5952 26.4132C32.3285 26.4211 32.2445 26.3346 32.2438 26.071C32.2418 25.2121 32.2257 24.3534 32.1956 23.495C32.1851 23.213 32.3 23.1647 32.5482 23.1639C33.4348 23.1609 34.3214 23.143 35.2076 23.1177C35.6672 23.1048 35.9749 22.8622 36.0342 22.5023C36.1155 22.0093 35.7789 21.6123 35.2523 21.6115C34.3521 21.6102 33.4517 21.6155 32.5522 21.6405C32.2541 21.6489 32.1553 21.5616 32.1565 21.2568C32.1615 20.3585 32.1494 20.3528 31.2415 20.3622C30.1667 20.3733 29.0917 20.3781 28.0177 20.4138C25.854 20.4863 24.1711 22.074 23.9856 24.2048C23.9689 24.3981 23.919 24.4925 23.7029 24.4973C22.9778 24.5126 22.2525 24.5366 21.5282 24.5769C21.2312 24.5934 21.1629 24.4885 21.1886 24.2034C21.5253 20.4786 23.8523 17.5245 27.3638 16.3887C27.7816 16.2533 28.2057 16.1271 28.6492 16.1033C28.7817 16.0962 29.667 16.002 30.0343 16.002C30.3927 16.0007 31.2515 16.0859 31.3633 16.1006Z" fill="#050505"/>
<path d="M25.587 39.2079C25.587 38.2555 25.5893 37.3031 25.587 36.3507C25.587 36.1539 25.5622 35.9669 25.8586 35.9769C26.1145 35.9855 26.1657 36.1157 26.1615 36.3409C26.1502 36.9444 26.1546 37.5481 26.1573 38.1519C26.1573 38.2515 26.1074 38.3838 26.2409 38.4335C26.3662 38.4803 26.4346 38.3654 26.5018 38.2893C27.5087 37.151 29.6375 37.549 30.2667 39.28C30.3137 39.4095 30.2761 39.6265 30.4606 39.6341C30.6607 39.6424 30.6146 39.4283 30.6557 39.2967C31.1521 37.709 33.1592 37.132 34.4192 38.2139C34.5052 38.2879 34.5689 38.4335 34.7148 38.3652C34.8353 38.3088 34.7931 38.1771 34.7933 38.0758C34.7933 37.8565 34.894 37.7587 35.1161 37.7719C35.3425 37.7854 35.3619 37.9365 35.3617 38.109C35.3603 39.4369 35.3574 40.7645 35.3599 42.0923C35.3599 42.3053 35.2874 42.4144 35.0582 42.4202C34.829 42.4261 34.7895 42.3008 34.7964 42.1146C34.8002 42.0129 34.8382 41.8898 34.7093 41.8326C34.5804 41.7754 34.5113 41.8825 34.4361 41.9523C33.3554 42.955 31.2139 42.6496 30.6461 40.8077C30.6118 40.6964 30.6202 40.5411 30.4581 40.5468C30.3225 40.5514 30.3265 40.693 30.2981 40.792C29.7933 42.5489 27.5405 43.0691 26.4492 41.8677C26.3942 41.8073 26.3382 41.7396 26.248 41.7676C26.1277 41.8052 26.1534 41.9126 26.1552 42.0041C26.158 42.1487 26.2023 42.3074 26.0314 42.3943C25.7901 42.5172 25.5912 42.3929 25.5897 42.1056C25.5833 41.1399 25.587 40.1739 25.587 39.2079ZM26.121 40.0749C26.1179 41.129 26.9343 41.978 27.9508 41.9778C28.9673 41.9776 29.8257 41.1198 29.831 40.1049C29.8366 39.0986 28.9678 38.183 27.9978 38.1728C26.9516 38.1617 26.1239 39.0002 26.1206 40.0749H26.121ZM32.9587 38.2156C31.9386 38.2156 31.0982 39.0658 31.1032 40.0932C31.1086 41.1551 31.9597 41.9878 33.0366 41.9855C34.0442 41.9836 34.8332 41.1536 34.8278 40.1033C34.8207 39.0142 34.0312 38.2168 32.9583 38.2166L32.9587 38.2156Z" fill="#EC1819"/>
<path d="M43.7174 40.1321C43.1268 40.1321 42.536 40.1413 41.9456 40.1281C41.6695 40.1218 41.5905 40.2219 41.6383 40.4885C41.7637 41.1808 42.1443 41.6826 42.8057 41.8986C43.4838 42.12 44.1333 41.9894 44.6802 41.5058C44.8189 41.383 44.9309 41.2267 45.0391 41.0738C45.1659 40.8929 45.2919 40.923 45.4467 41.032C45.6071 41.144 45.5898 41.2514 45.4954 41.4033C45.0468 42.1257 44.3792 42.4825 43.5525 42.5121C42.2001 42.5606 41.3843 41.8854 41.082 40.6621C40.7269 39.2254 41.705 38.0202 42.7675 37.7253C44.1653 37.3369 45.6372 38.3311 45.7966 39.7686C45.8244 40.0193 45.7774 40.1429 45.4878 40.1344C44.8977 40.1172 44.3067 40.1293 43.7159 40.1293L43.7174 40.1321ZM43.4078 39.6353V39.6399C43.8776 39.6399 44.3478 39.6384 44.8173 39.6399C45.0638 39.6399 45.2194 39.5883 45.0972 39.2875C44.8333 38.6386 44.2141 38.2168 43.4924 38.2087C42.6428 38.1993 42.0967 38.5348 41.7842 39.2248C41.6509 39.5189 41.6952 39.6455 42.0374 39.6374C42.4946 39.6271 42.9515 39.6353 43.4078 39.6353Z" fill="#EC1819"/>
<path d="M24.8939 40.0852C24.8939 40.7295 24.8939 41.3737 24.8939 42.0179C24.8939 42.2059 24.9373 42.4123 24.6371 42.4073C24.3793 42.4029 24.32 42.2654 24.3507 42.0383C24.3641 41.9393 24.4054 41.8085 24.2686 41.7601C24.1614 41.7227 24.1015 41.8273 24.0403 41.8917C23.2602 42.6997 21.8411 42.6571 21.0502 42.0212C20.1077 41.2633 19.8369 39.9894 20.4041 38.9022C20.9205 37.9128 22.1409 37.4277 23.2341 37.781C23.546 37.8817 23.8065 38.0685 24.0451 38.2897C24.1161 38.3557 24.1596 38.5024 24.2958 38.4297C24.3952 38.3762 24.3405 38.2609 24.3522 38.1723C24.3703 38.0369 24.2826 37.8673 24.4733 37.7862C24.7031 37.6887 24.8899 37.8102 24.8911 38.0722C24.897 38.7432 24.8936 39.4142 24.8939 40.0852ZM22.5295 41.9972C23.556 42.0028 24.404 41.1912 24.413 40.1945C24.4226 39.1151 23.6321 38.2517 22.6734 38.1959C21.3947 38.1209 20.6485 39.2471 20.6531 40.0832C20.659 41.1312 21.5008 41.9917 22.5295 41.9972Z" fill="#050505"/>
<path d="M14.731 40.5575C14.6432 41.5107 13.7213 42.5707 12.3077 42.5035C11.1587 42.4489 10.2334 41.6657 10.0515 40.6636C9.83046 39.4459 10.3291 38.4126 11.3929 37.8841C12.7827 37.1947 14.5099 38.1045 14.7316 39.6431C14.7987 39.9442 14.7984 40.2565 14.731 40.5575ZM12.3862 38.2079C11.4102 38.2133 10.4977 39.1104 10.5295 40.1069C10.5687 41.3137 11.4979 42.0129 12.428 41.9969C13.4355 41.9795 14.2814 41.1086 14.2664 40.0864C14.2526 39.0757 13.3785 38.2025 12.3862 38.2079Z" fill="#050505"/>
<path d="M46.0386 37.774C46.2498 37.7413 46.3215 37.8994 46.3959 38.0665C46.8095 38.9881 47.2249 39.9089 47.6422 40.8289C47.6806 40.9137 47.717 40.9998 47.7621 41.0796C47.8666 41.2655 47.9482 41.2352 48.0274 41.0558C48.3264 40.3789 48.6332 39.7056 48.9299 39.0279C49.0671 38.7145 49.1835 38.3924 49.3216 38.0799C49.3644 37.9817 49.4309 37.8956 49.515 37.8292C49.5745 37.7845 49.6462 37.7591 49.7205 37.7561C49.7949 37.7532 49.8684 37.773 49.9312 37.8129C50.0638 37.8986 49.9706 38.0346 49.9249 38.1384C49.0893 40.0396 48.253 41.9406 47.416 43.8415C47.3426 44.0087 47.2355 44.0997 47.0587 44.1192C46.7809 44.1497 46.7084 44.0371 46.8312 43.7586C47.0419 43.2803 47.254 42.8027 47.4675 42.3257C47.5545 42.1325 47.5674 41.9536 47.473 41.7491C46.9073 40.5243 46.3555 39.293 45.7926 38.0667C45.6662 37.7918 45.8141 37.7665 46.0386 37.774Z" fill="#EC1819"/>
<path d="M19.753 38.0256C19.7542 37.825 19.6625 37.7809 19.4866 37.7694C19.1827 37.7485 19.214 37.9458 19.219 38.139C19.2213 38.2284 19.2505 38.3366 19.1396 38.3855C19.0331 38.4325 18.9669 38.3471 18.8958 38.2892C18.8248 38.2313 18.754 38.1657 18.679 38.1095C17.3792 37.1346 15.4409 37.8513 15.0785 39.4398L15.0729 39.4553C15.0729 39.4553 15.0666 39.4781 15.0664 39.4783C15.0352 39.579 15.0217 39.7511 14.9889 39.9431C14.9876 40.24 14.9617 40.1485 14.9889 40.3887C15.0179 40.4764 15.0307 40.5963 15.0593 40.6858C15.4886 42.0756 16.9171 42.7518 18.2664 42.2037C18.5171 42.1017 18.7377 41.953 18.942 41.7758C19.0607 41.673 19.2117 41.6233 19.22 41.8458C19.2409 42.4115 19.1484 42.9549 18.6631 43.3274C17.8388 43.9599 16.5049 43.8162 15.8086 43.0349C15.7551 42.9749 15.7123 42.8985 15.6469 42.8573C15.49 42.7583 15.2805 42.7362 15.1533 42.8335C14.9845 42.9626 15.1915 43.0986 15.2594 43.1993C15.8679 44.1055 16.7871 44.295 17.778 44.1772C19.2127 44.0065 19.6773 43.2006 19.7246 42.2515C19.7945 40.846 19.7444 39.4346 19.753 38.0256ZM17.3662 41.8926C16.2964 41.8861 15.5329 41.1213 15.5126 40.0883C15.4917 39.0091 16.5379 38.1214 17.5237 38.1908C18.4897 38.2587 19.2698 39.0498 19.2604 40.0883C19.2508 41.1378 18.4517 41.8984 17.3662 41.8926Z" fill="#050505"/>
<path d="M37.9378 42.0486C38.0132 41.979 38.0761 41.897 38.124 41.8062C38.1909 41.6806 38.2401 41.5462 38.2702 41.407C38.2702 41.3803 38.2723 41.354 38.2748 41.3322C38.3709 40.4941 37.8031 40.0903 37.1174 39.7694C36.8843 39.6604 36.6628 39.5212 36.4846 39.3353C36.2985 39.141 36.1648 38.9052 36.305 38.6273C36.4548 38.3303 36.6977 38.1531 37.0508 38.1815C37.2943 38.2011 37.5237 38.3035 37.7009 38.4717C37.8472 38.6069 37.984 38.6227 38.1056 38.4491C38.2192 38.2866 38.1735 38.1567 38.0193 38.0395C37.7118 37.804 37.3756 37.657 36.9831 37.6582C36.3027 37.6607 35.7762 38.1851 35.7581 38.8651C35.743 39.4324 36.0591 39.7736 36.4949 40.0425C36.7915 40.2255 37.1028 40.3851 37.3932 40.5762C37.6771 40.7623 37.8179 41.0373 37.7097 41.3746C37.5983 41.7214 37.3477 41.9335 36.9752 41.975C36.63 42.0137 36.3438 41.8819 36.0978 41.6498C35.9824 41.5403 35.8807 41.4421 35.7403 41.6274C35.5999 41.8127 35.5168 41.9347 35.8838 42.2057C36.5074 42.6653 37.3614 42.5817 37.9293 42.054L37.9378 42.0486Z" fill="#EC1819"/>
<path d="M40.633 42.0486C40.7084 41.979 40.7713 41.897 40.8191 41.8062C40.8862 41.6806 40.9354 41.5463 40.9654 41.407C40.9654 41.3803 40.9675 41.354 40.97 41.3322C41.0661 40.4941 40.4983 40.0903 39.8126 39.7694C39.5795 39.6604 39.3581 39.5212 39.1799 39.3353C38.9937 39.141 38.86 38.9052 39.0002 38.6273C39.15 38.3303 39.393 38.1531 39.746 38.1815C39.9895 38.2011 40.2189 38.3035 40.3961 38.4717C40.5423 38.6069 40.6792 38.6227 40.8008 38.4491C40.9144 38.2866 40.8687 38.1567 40.7145 38.0395C40.407 37.804 40.0708 37.657 39.6783 37.6582C38.9979 37.6607 38.4715 38.1851 38.4533 38.8651C38.4383 39.4324 38.7543 39.7736 39.1901 40.0425C39.4868 40.2255 39.7982 40.3851 40.0884 40.5762C40.3723 40.7623 40.5131 41.0373 40.4049 41.3746C40.2935 41.7214 40.0429 41.9335 39.6704 41.975C39.3253 42.0137 39.0391 41.8819 38.793 41.6498C38.6777 41.5403 38.5759 41.4421 38.4355 41.6274C38.2952 41.8127 38.2122 41.9347 38.5791 42.2057C39.2026 42.6653 40.0566 42.5817 40.6247 42.054L40.633 42.0486Z" fill="#EC1819"/>
</g>
<defs>
<clipPath id="clip0_1_123">
<rect width="40" height="28.2089" fill="white" transform="translate(10 16)"/>
</clipPath>
</defs>
</svg>
